# xmcd
#
# Track frame offsets:
#	150
#	10309
#	27155
#	51073
#	68800
#	88980
#	108152
#	120155
#	134595
#	156052
#	175649
#	193805
#	214061
#	221399
#	237729
#	252429
#	263775
#
# Disc length: 3689 seconds
# Revision: 0
# Processed by: cddbd v1.5.2PL0 Copyright (c) Steve Scherf et al.
# Submitted via: dBpowerAMP V12.0
#
DISCID=ef0e6711
DTITLE=Jeffery Broussard and the Creole Cowboys - Keeping the Tradition Alive!
DYEAR=2007
DGENRE=Zydeco
TTITLE0=Off Time Zydeco
TTITLE1=Broussard Baisse Bas
TTITLE2=Richest Man
TTITLE3=Motor Dude Special
TTITLE4=Oh Ye Yaille
TTITLE5=My Baby Left Me
TTITLE6=Creole Zydeco Hot Step
TTITLE7=Dog Hill
TTITLE8=Why You Wanna Make Me Cry
TTITLE9=It Won't Be Long
TTITLE10=Oh Mom
TTITLE11=My Baby Needs to Come Back Home
TTITLE12=Tribute to Amedee
TTITLE13=I Lost My Woman
TTITLE14=Creole Cowboy Two Step
TTITLE15=Johnny Bill Goat
TTITLE16=Make It to Me
EXTD=
EXTT0=
EXTT1=
EXTT2=
EXTT3=
EXTT4=
EXTT5=
EXTT6=
EXTT7=
EXTT8=
EXTT9=
EXTT10=
EXTT11=
EXTT12=
EXTT13=
EXTT14=
EXTT15=
EXTT16=
PLAYORDER=
